<?xml version="1.0" encoding="UTF-8"?>
<svg version="1.1" viewBox="0 0 1099 1080" width="1099" height="1080" xmlns="http://www.w3.org/2000/svg">
<path transform="translate(521)" d="m0 0h58l34 3 27 4 36 7 24 6 29 9 25 9 26 11 32 16 16 9 20 12 22 15 18 13 16 13 14 12 8 7 10 9 16 16v2h2l7 8 10 11 9 11 11 14 13 18 17 26 12 21 12 23 11 23 14 36 7 22 8 29 7 36 4 28 3 33v61l-4 39-5 30-6 27-9 32-9 26-11 27-12 25-13 25-9 15-10 16-13 18-12 16-13 16-9 10-7 8-11 12-14 14-8 7-8 8-10 8-17 14-19 14-18 12-18 11-21 12-21 11-25 11-31 12-27 9-18 5-27 6-15 3-25 4-39 4h-74l-36-4-36-6-31-7-25-7-26-9-27-11-20-9-26-13-23-13-21-14-19-13-18-14-14-12-10-9-8-7-15-14-12-12v-2h-2l-9-11-9-10-8-10-14-18-22-33-14-24-15-29-11-25-9-24-9-27-6-21-7-32-4-25-2-15-3-38v-49l3-34 5-33 6-30 6-23 12-36 12-30 16-33 12-22 11-18 12-18 13-18 7-9 8-10 12-14 11-12 31-31 11-9 10-9 17-13 18-13 21-14 29-17 15-8 17-8 28-12 30-11 27-8 31-8 20-4 35-5z" fill="#233540"/>
<path transform="translate(521)" d="m0 0h58l34 3 27 4 36 7 24 6 29 9 25 9 26 11 32 16 16 9 20 12 22 15 18 13 16 13 14 12 8 7 10 9 16 16v2h2l7 8 10 11 9 11 11 14 13 18 17 26 12 21 12 23 11 23 14 36 7 22 8 29 7 36 4 28 3 33v61l-4 39-5 30-6 27-9 32-9 26-11 27-12 25-13 25-9 15-10 16-13 18-12 16-13 16-9 10-7 8-11 12-14 14-8 7-8 8-10 8-17 14-19 14-18 12-18 11-21 12-21 11-25 11-31 12-27 9-18 5-27 6-15 3-25 4-39 4h-74l-36-4-36-6-31-7-25-7-26-9-27-11-20-9-26-13-23-13-21-14-19-13-18-14-14-12-10-9-8-7-15-14-12-12v-2h-2l-9-11-9-10-8-10-14-18-22-33-14-24-15-29-11-25-9-24-9-27-6-21-7-32-4-25-2-15-3-38v-49l3-34 5-33 6-30 6-23 12-36 12-30 16-33 12-22 11-18 12-18 13-18 7-9 8-10 12-14 11-12 31-31 11-9 10-9 17-13 18-13 21-14 29-17 15-8 17-8 28-12 30-11 27-8 31-8 20-4 35-5zm24 39-43 2-32 4-28 5-29 7-28 8-31 11-18 8-33 16-15 8-15 9-19 12-14 10-13 10-10 8-14 12-13 12-7 7-7 6-7 8-12 12-8 10-12 14-12 17-10 14-16 26-14 26-11 24-12 30-11 33-6 22-7 33-4 27-3 33v51l3 33 4 28 9 38 8 27 9 24 10 23 14 28 13 23 22 33 9 12 11 13 9 11 12 13 7 8 15 15 8 7 8 8 11 9 14 12 19 14 21 14 15 9 22 12 23 12 13 5 24 10 26 9 24 7 26 6 36 6 26 3 16 1h53l30-2 36-5 26-5 37-10 32-11 24-10 29-14 10-6 11-6 22-13 17-12 19-14 14-12 11-9 16-15 20-20 9-11 12-13 7-9 8-10 13-19 10-15 9-15 10-17 11-21 7-17 6-13 7-20 8-22 8-30 6-30 5-37 1-17v-52l-3-31-6-40-6-25-6-21-8-24-12-29-16-33-11-19-11-18-8-12-13-18-9-12-22-26-9-9-5-6-8-7-9-9-11-9-15-13-17-13-13-10-15-10-17-10-21-12-26-13-34-14-36-12-21-6-29-6-24-4-37-4-21-1z" fill="#293943"/>
<path transform="translate(529,192)" d="m0 0h26l19 3 15 4 16 7 13 8 10 8 2 2 5-1 11-4 10-2 14-1 17 2 12 3 18 7 9 5 12 8 10 8 7 7 11 14 9 15 7 15 7 21 2 13v26l-3 15-5 13-7 14-9 12-15 15-12 9-10 5-16 4h-15l-2-2 19-3 10-5 8-7 1-4-4 2-8 5-6 2-8 1h-12l-10-2-9-4-3-3v-12l4-15 8-16 10-4 12-6 9-7 8-8 6-10 5-12 2-9v-12l-2-3-3 17-6 12-4 5h-2l-1 3-13 9-10 5-13 4-10 2h-19l-17-3-16-6-15-8-15-10 1-4 8-17 6-20 1-4v-7h-1l-4 16-9 17-9 11-9 9-15 10-19 10-16 5-20 3h-14l-21-3-24-8-16-9-15-11-6-3 3 6 8 10 8 7 6 7-5 5-7 5-14 6-12 2h-12l-13-3-10-5-10-8-9-9-6-10v-2l-2 1 4 10 8 12 9 10 10 8 14 8 20 6 5 5 2 6v11l-5 5-16 4h-21l-12-3-16-8-11-8-7-7-9-13-9-17-5-17-1-6v-26l3-15 6-15 7-13 10-14 12-13 12-9 14-8 13-5 15-3 22-1 18 2 10 2h2l2-4 9-9 14-10 17-10 19-7 14-4z" fill="#FBFBFC"/>
<path transform="translate(545,39)" d="m0 0h18l33 2 39 5 31 6 26 7 36 12 28 11 33 16 20 11 17 10 18 12 13 10 14 11 13 11 14 12 8 7 9 9 6 5 7 8 7 7 9 11 11 13 12 17 13 18 12 20 10 17 14 27 11 25 6 15 10 30 8 31 5 27 5 39 1 14v52l-2 26-6 39-7 31-8 27-11 30-6 15-7 15-8 16-10 19-8 13-14 22-13 18-6 8-13 16-10 11-9 11-28 28-8 7-14 12-10 8-16 12-17 12-25 15-16 9-25 13-25 11-37 13-36 10-23 5-27 4-29 3-17 1h-53l-26-2-42-6-36-8-28-8-30-11-21-9-16-7-25-13-24-14-24-16-21-16-14-12-13-11-10-10-8-7-15-15-7-8-9-10-9-11-13-16-22-33-8-13-14-26-12-24-11-27-9-27-6-22-8-36-4-32-2-23v-51l3-33 4-27 8-38 12-39 8-21 12-29 9-19 12-22 14-23 12-17 13-18 13-15 9-11 15-15 6-7 8-7 9-9 8-7 13-11 17-13 15-11 17-11 29-17 30-15 22-10 30-11 23-7 35-9 26-5 31-4 23-2zm-33 18-26 3-21 3-15 3-12 3-14 3-28 8-24 8-20 8-29 13-19 10-16 9-17 11-16 11-36 28-11 10-8 7-17 17-7 8-8 8-7 9-9 11-7 9-13 18-9 14-8 13-7 12-16 32-11 26-9 25-9 30-8 35-4 25-2 15-1 16v59l2 22 4 28 6 30 2 5 4 16 9 27 11 28 8 17 13 23 10 17 10 15 9 14 8 11 9 11 11 13 10 11 7 8 24 24 11 9 12 11 14 11 5 4 16 11 28 18 24 13 11 6 7 3 25 11 21 8 29 9 26 7 22 5 35 5 38 3h41l38-4 27-4 29-6 35-10 31-11 18-8 14-6 16-8 21-12 10-6 19-12 18-13 14-12 3-2v-2l4-2 11-9 8-8 8-7 25-25 9-11 8-9 9-11 13-18 9-14 11-18 13-23 8-15 12-27 6-17 8-25 5-15 6-25 6-35 2-16 1-17v-57l-3-28-5-33-6-26-13-44-10-24-8-16-10-21-16-27-10-16-14-20-12-15-9-11-13-15-30-30-11-9-10-8-17-13-17-12-16-10-14-9-24-13-28-13-25-10-24-8-27-8-33-7-36-6-18-2z" fill="#263741"/>
<path transform="translate(535,25)" d="m0 0h42l31 3 29 4 30 6 35 9 29 10 34 14 24 11 20 11 28 17 11 7 19 14 14 11 13 11 8 7 10 9 8 7 21 21v2h2l6 7v2h2l8 10 12 16 10 13 10 15 13 20 15 27 9 17 11 25 10 26 10 32 8 33 5 30 4 34 1 15v41l-3 36-6 38-9 37-9 29-12 32-9 20-10 21-13 23-16 26-12 17-14 19-9 10-9 11-15 16-26 26-8 7-14 12-14 11-13 10-21 14-32 19-18 10-33 15-28 11-43 13-25 6-28 5-32 4-28 2h-50l-40-4-35-6-27-6-33-9-32-11-27-12-29-14-20-11-21-13-16-11-26-20-14-12-10-9-12-11-13-12-7-8-11-11-11-14-11-13-8-11-10-14-13-20-12-20-14-27-12-26-9-24-9-27-8-30-6-31-4-33-2-28v-28l2-32 4-33 5-25 7-28 7-26 7-20 10-25 14-31 10-19 16-27 13-19 9-12 10-13 13-16 9-10 11-12 15-15 8-7 14-13 10-8 18-14 24-16 10-7 27-16 17-9 16-8 17-8 19-8 31-10 37-10 25-5 24-4 39-4zm10 14-43 2-32 4-28 5-29 7-28 8-31 11-18 8-33 16-15 8-15 9-19 12-14 10-13 10-10 8-14 12-13 12-7 7-7 6-7 8-12 12-8 10-12 14-12 17-10 14-16 26-14 26-11 24-12 30-11 33-6 22-7 33-4 27-3 33v51l3 33 4 28 9 38 8 27 9 24 10 23 14 28 13 23 22 33 9 12 11 13 9 11 12 13 7 8 15 15 8 7 8 8 11 9 14 12 19 14 21 14 15 9 22 12 23 12 13 5 24 10 26 9 24 7 26 6 36 6 26 3 16 1h53l30-2 36-5 26-5 37-10 32-11 24-10 29-14 10-6 11-6 22-13 17-12 19-14 14-12 11-9 16-15 20-20 9-11 12-13 7-9 8-10 13-19 10-15 9-15 10-17 11-21 7-17 6-13 7-20 8-22 8-30 6-30 5-37 1-17v-52l-3-31-6-40-6-25-6-21-8-24-12-29-16-33-11-19-11-18-8-12-13-18-9-12-22-26-9-9-5-6-8-7-9-9-11-9-15-13-17-13-13-10-15-10-17-10-21-12-26-13-34-14-36-12-21-6-29-6-24-4-37-4-21-1z" fill="#FBFBFC"/>
<path transform="translate(589,353)" d="m0 0 4 2 10 9 15 10 13 6 21 5 17 1 2 3-3 17-1 21v52l1 32 3 34 3 21-4 1-22-5-37-5-22-2-27-1h-21l-40 2-42 5-27 5-8 2h-6l1-17 2-49v-40l-1-41-2-19-1-8 1-2 18-6 10-6 7-5 11 3 15 5 16 3h24l17-3 18-6 16-8 11-9z" fill="#FBFBFC"/>
<path transform="translate(191,305)" d="m0 0 4 2 13 21 15 29 10 19 13 24 13 28 9 20 11 27 3 12 1 17-2 13-7 17-13 22-4 10-1 4v15l4 13 10 24 10 22 10 19 12 23 10 19 8 16 12 23 9 17 11 23 8 17 9 17 6 14 2 9v7l-4 11-7 6-9 3-12-1-8-4-10-10-7-14-8-21-14-43-16-53-15-50-14-44-9-20-10-18-8-10-12-7-22-6-16-8-10-9-7-10-6-15-8-28-8-35-7-37-10-61-2-12v-18l2-2 5 1 5 8 9 30 8 30 8 27 9 32 9 30 4 6 5 2 5-1v-8l-8-29-14-50-12-43-6-21v-5l2 3 11 30 10 28 19 49 11 29 5 9 4 3 5-1 1-2v-8l-15-48-21-64-8-22-5-11 1-2 13 23 10 21 15 37 9 21 12 29 7 14 6 2 3-2 1-8-6-18-8-23-12-34-13-37-11-30-5-16v-6z" fill="#FBFBFC"/>
<path transform="translate(435,600)" d="m0 0h25l16 4 16 8 11 7 12 11 5 6 5 1 13-4h23l12 5 5-1 18-18 16-10 11-5 17-4h23l18 4 14 7 14 10 4 2 17 2 2 9v8l-11 7-4 5-7 23-7 14-9 10-8 7-10 6-16 5-5 1h-22l-19-5-18-7-8-7-7-9-6-12-4-15-4-6-8-5-3-1h-12l-10 5-4 5-8 21-9 12-9 9-9 6-17 7-11 2h-20l-14-3-13-5-14-10-8-9-8-14-9-24-3-6-10-5-1-2v-8l2-9 16-1 9-5 10-8 13-6 13-4z" fill="#FBFBFC"/>
<path transform="translate(371,767)" d="m0 0 8 6 7 6 14 8 13 6 13 4 16 2h15l13-2 11-4 14 1 16-4 16-7 11-7 12-9 4 2 13 10 14 7 14 4 13 2 14 1 19 5 9 1h16l16-2 17-5 17-8 12-9 7-5-1 7-8 16-8 12-10 13-5 6-5 5-13 11-16 11-16 9-16 7-27 9-27 5-13 1h-37l-23-3-21-5-29-10-23-12-12-8-10-8-12-11-9-10-12-18-7-14-4-13z" fill="#FBFBFC"/>
<path transform="translate(512,57)" d="m0 0h74l25 3 29 5 37 8 30 9 28 10 25 11 25 12 23 13 33 22 16 12 13 10 11 9 13 12 26 26 9 11 11 13 10 13 12 17 12 19 14 24 11 21 8 18 7 15 6 17 8 26 5 18 6 31 5 37 1 12v57l-1 17-3 23-6 33-5 20-5 15-8 25-7 19-9 21-10 19-10 18-13 22-7 10-7 11-10 13-11 13-9 11-14 15-22 22-8 7-11 10-4 3h-2v2l-11 9-10 8-17 12-16 10-10 6-21 12-16 8-20 9-28 11-32 10-23 6-24 5-27 4-38 4h-41l-38-3-35-5-26-6-29-8-30-10-20-8-20-9-16-8-15-8-17-10-17-11-12-8-11-8-11-9-11-10-11-9-13-12-22-22-9-11-10-11-9-11-8-11-10-14-9-15-7-11-9-15-10-18-11-24-6-15-11-33-5-18-6-27-4-25-2-16-1-15v-59l2-23 3-20 4-23 9-36 12-36 8-20 9-21 9-16 8-16 10-17 7-10 8-12 8-11 18-22 8-10 11-11 7-8 17-17 11-9 8-7 13-10 17-13 16-11 11-7 13-8 12-7 16-8 31-14 21-8 27-9 27-7 13-3 23-5 36-5zm20 4-26 1-27 3-33 6-30 7-27 8-18 7-31 12-32 16-18 10-14 9-20 14-26 20-3 2v2l-4 2-8 7-12 11-5 4-4 5-21 21-4 5v2h-2l-3 4v2h-2l-20 26-7 10-9 14-13 21-16 32-13 32-5 12-9 28-8 32-5 25-3 23-2 21-1 21v15l1 26 3 31 5 28 8 34 10 30 8 20 11 24 8 15 6 11 8 13 7 11 4 7 8 11 10 14 8 10 9 11 11 12 9 10 22 22 11 9 12 11 6 5h2v2l7 5h2v2l14 10 14 9 18 11 15 9 19 10 28 13 16 6 25 9 23 6 29 7 22 4 45 5h65l35-4 25-4 28-6 23-7 14-4 33-13 25-11 17-9 11-6 18-11 7-4 15-10 8-6 9-7 11-9 10-8v-2l4-2 8-7 17-16 12-12 7-8 10-11v-2h2l9-12v-2h2l13-18 8-11 8-13 6-11 11-19 12-23 8-19 8-21 9-27 8-30 6-35 2-12 2-23 1-34-2-37-2-17-4-29-6-27-11-38-3-8-15-35-8-16-9-17-16-27-7-10-11-16-12-15-7-9-11-12-7-8-12-13-15-14-12-11-13-10-18-13-11-8-14-9-19-11-16-9-17-9-33-14-30-11-27-8-28-6-22-4-26-3-8-1-22-1z" fill="#6D6765"/>
<path transform="translate(643,609)" d="m0 0h11l15 3 14 5 10 7 7 7 4 6 1 4v10l-4 15-7 16-7 9-10 8-12 6-6 2-9 1h-13l-13-2-13-5-12-7-10-12-5-14v-12l3-9 4-7 9-10 10-8 10-6 18-6z" fill="#253641"/>
<path transform="translate(437,610)" d="m0 0h22l15 4 14 6 10 8 9 10 7 11 2 8v9l-3 10-6 9-11 11-12 7-14 4h-27l-16-5-10-7-10-10-6-12-4-14-2-10v-9l4-8 6-7 14-9z" fill="#253641"/>
<path transform="translate(746,710)" d="m0 0 3 1 1 4v17l-6 16-9 12-5 5-8 7-13 8-16 6-18 3h-24l-14-2-14-5-16-8-10-6 1 6 1 4h-8l-13-5-13-9v-2l-3-1-8-12-2-9 5-5 15-12h2l2-4 5-4 5-2h13l13 5 16 9 10 7 16 10 14 8 13 4 11 2h12l12-3 11-7 7-7 6-9 4-12z" fill="#FBFBFC"/>
<path transform="translate(361,712)" d="m0 0 2 2 5 16 7 10 5 5v2l4 2 10 6 10 3h12l14-4 14-7 14-10 15-10 15-9 8-4 5-1h11l10 6 9 9 10 7 6 5-1 8-5 9-8 8-13 10-9 3-4-1 4-11-15 9-24 10-11 3-7 1h-22l-15-3-17-6-14-9-10-9-2-1v-2h-2l-9-14-4-13v-15z" fill="#FBFBFC"/>
<path transform="translate(669,104)" d="m0 0 10 2 20 7 8 7 3 6v8l-3 6-5 5-6 3h-5l5 23 5 3-1 4-9-2-5-3-4-23-1-3-9-3-6 16 8 4-1 4-7-1-16-6-1-4 8-1 12-33 3-8v-5l-4-2z" fill="#FBFBFC"/>
<path transform="translate(568,86)" d="m0 0 12 1 11 2-1 4-6 2 3 28 2 17 14-31v-14l7-2 2 1 2 15 2 19 1 17 15-33 3-7v-3l-7-3 1-4 18 2 4 1v4l-7 2-17 37-6 13-1 1-10-1-4-31-1-2-5 12-8 16-1 1h-9l-2-6-6-46-1-6-5-2-1-2z" fill="#FBFBFC"/>
<path transform="translate(318,156)" d="m0 0h8l8 4 5 4 6 10 3 8v12l-3 5-6 4-3 1h-9l-10-5-8-11-4-12v-10l6-7z" fill="#233540"/>
<path transform="translate(390,123)" d="m0 0h9l8 4 6 7 5 12 1 5v7l-3 9-7 4-4 1h-7l-8-4-7-8-4-10-1-4v-13l2-5z" fill="#233540"/>
<path transform="translate(543,685)" d="m0 0h14l10 4 6 7 2 5v7l-5 6-12 6-7 2h-7l-15-6-7-6v-10l6-9 10-5z" fill="#FBFBFC"/>
<path transform="translate(377,918)" d="m0 0 9 1 6 3 6 7 2 7-1 10-5 10-6 5-4 2h-11l-6-3-5-5-3-6-1-7 3-11 6-8z" fill="#283942"/>
<path transform="translate(483,92)" d="m0 0h6v3l-6 5-10 17-2 5 12 11 8 7 6 5 7 2v3l-13 3-7-7-8-7-10-9-4 5 1 11 1 7 2-1h7l1 4-6 2-14 3h-5l-1-3 5-3h2l-10-48-7-1-1-4 23-5 1 4-5 3h-2l4 18v5h2l2-5 13-22h-5l-1-5z" fill="#FAFAFB"/>
<path transform="translate(318,149)" d="m0 0h13l9 4 8 7 6 10 3 10v9l-4 10-6 7-10 5-4 1h-9l-10-4-8-7-6-10-3-9v-11l3-9 7-8 8-4zm0 7-8 4-5 6v10l4 12 8 11 10 5h9l8-4 3-3 1-3v-12l-5-12-6-8-8-5-3-1z" fill="#FBFBFC"/>
<path transform="translate(390,116)" d="m0 0h14l10 5 8 9 5 12 1 5v8l-3 10-7 8-6 4-6 2h-13l-10-5-7-7-5-10-2-8v-10l4-11 6-7 8-4zm0 7-10 5-2 5v13l4 12 6 8 5 4 5 2h7l10-4 3-5 1-5v-7l-4-13-6-9-7-5-3-1z" fill="#FBFBFC"/>
<path transform="translate(835,189)" d="m0 0 4 2 12 11 4 3v2l4 2 7 7-1 4-7 7-5-1v-3l3-6-2-4h-2l-7-8h-3l-9 9-3 5v2l4 2 10 8-1 4-2 2-4-1-11-11-4 1-9 10-1 5 4 2 10 8 7-4 4 1v4l-9 9-4-1-15-14-3-2v-2l-4-2-7-7v-3l5 1 4 1 15-16 2-3h2l2-4 8-8 3-5-2-3z" fill="#FBFBFC"/>
<path transform="translate(267,183)" d="m0 0h6l6 10v4l-5 2-4-5v-2l-9 2-8 5-2 4v8l4 11 6 8 8 5 3 1h10l6-3 8-10 3-3 3 2-1 4-9 15-8 4-3 1h-13l-10-5-5-5-6-8-4-10v-13l4-9 5-6 8-5z" fill="#FBFBFC"/>
<path transform="translate(775,148)" d="m0 0 5 2 20 14 17 11 3 3-6 9-3 3-4-2 2-10-8-6-4-1-2 5-7 10-16 24v3l4 2 2 2v3l-3 1-15-10-7-5v-3l11 1 7-10 18-27v-3l-11-6-5 5-5-1 2-6z" fill="#FBFBFC"/>
<path transform="translate(960,585)" d="m0 0h2l-1 6-5 5-9 7-7 2h-10l-13-4-11-1-17 2-9 3-8 6-16 8-3 1v2l9 3 11 5 8 3 6 1h12l9-3 6-4 9-8 2 1-6 8-10 7-10 3h-15l-12-3-23-12-5-2 1-3 11-8 9-8 7-4 12-4 15-1 26 6 15 1 10-5 9-8z" fill="#FBFBFC"/>
<path transform="translate(564,948)" d="m0 0h10l6 3 4 5 1 7-5 8-3 1 5 9 4 5 4 1v3h-11l-8-13v-2l-8 1 1 11 6 1v3l-6 1h-12v-3l4-2-1-26-1-7-4-2 1-3z" fill="#FBFBFC"/>
<path transform="translate(728,912)" d="m0 0h9l6 4 3 6-1 9-4 5-10 5 1 6 1 5 8-1v3l-14 6h-3v-3l2-1-1-7-10-24v-2h-6l1-3 15-7z" fill="#FBFBFC"/>
<path transform="translate(416,930)" d="m0 0 21 5 5 5 3 6-2 9-5 5-3 1h-9l-8-2-1 11 5 2v3l-9-1-9-3v-2l5-2 5-18 3-14-3-2v-2z" fill="#FBFBFC"/>
<path transform="translate(377,918)" d="m0 0 9 1 6 3 6 7 2 7-1 10-5 10-6 5-4 2h-11l-6-3-5-5-3-6-1-7 3-11 6-8zm-1 5-5 5-4 6-1 3v14l5 6 6 2 6-1 7-8 3-9v-7l-3-7-6-4z" fill="#FBFBFC"/>
<path transform="translate(738,131)" d="m0 0 6 1 15 8v3h-9l-2 5-18 36v3l5 3v4l-6-1-17-9v-3h8l9-16 8-16 5-11-5-5z" fill="#FBFBFC"/>
<path transform="translate(921,396)" d="m0 0 4 2 10 10 9 12 2 5 1 12-2 3-5-17-6-8-6-4-4-6v-3h-3l-1 7-7 21v20l4 15 4 6-1 16-5 13-6 7h-3l1-4 6-7 3-7 1-15-6-16-5-13v-15l5-15 5-11 3-6z" fill="#FBFBFC"/>
<path transform="translate(620,944)" d="m0 0h7l1 10-4 1-2-5-13 1 2 13 14-1 1 4-4 2-10 1 1 14 15-3 1-7h3l1 2v10l-26 4-5-1 3-3h2l-5-31v-4l-5-1v-2l17-3z" fill="#FBFBFC"/>
<path transform="translate(771,892)" d="m0 0h3l3 6v4h-4l-1-2-6 1-7 2 3 7 3 6 5-2 6-4 4 2-1 4-10 5 2 6 3 6 10-5 1-1v-7l4-1 4 8-1 3-23 12h-4l2-4-1-5-13-25h-5v-4l17-9z" fill="#FBFBFC"/>
<path transform="translate(921,402)" d="m0 0h3l3 6 1 3 5 2 5 5-1 2-2-2 1 5-4-2-3-3 5 20v16l-2 5h-1l-2-16-1-3-1 6v15l-2 2-2-2-3-12 1-14 2-3-2-3v-9l2-1v-13l-6 16-3 11v12l3 16 3 6-1 2-4-7-3-12v-20z" fill="#6D6765"/>
<path transform="translate(681,115)" d="m0 0 8 1 9 3 3 5v7l-5 8-5 3-9-1-7-3-1-3z" fill="#2C3B44"/>
<path transform="translate(906,599)" d="m0 0 16 2 8 3h10l9-2-3 3-4 1h-15l-6-2-1-1h-7l2 2v3l-18 2-18 5-7 1v2l-12 2h-3l-1 2 6 2-3 1-6-3v-2l22-12 7-5 12-3z" fill="#6D6765"/>
<path transform="translate(335,901)" d="m0 0h10l10 6 3 4-2 5-3 4-4-1 1-7-4-4-4-2-6 1-6 5-4 8-1 8 3 7 6 4 9 1 1 4h-15l-6-4-5-8-1-8 3-10 6-8z" fill="#FBFBFC"/>
<path transform="translate(656,935)" d="m0 0h12l2 1 1 3v7l-4 1-2-5-2-1h-7l-4 1-3 6v10l4 9 4 4 4 2 8-1 6-4 4 1-5 6-6 4h-11l-8-4-5-7-2-6v-13l5-8 4-4z" fill="#FBFBFC"/>
<path transform="translate(453,941)" d="m0 0 9 1 5 1v3h-3l4 13v5l3-1 9-14-4-2 1-2 12 1 2 1v2l-6 3-13 17-3 14 4 1v3l-11-1-5-2 1-2 5-1 1-12-8-23-4-2z" fill="#FBFBFC"/>
<path transform="translate(906,613)" d="m0 0 3 1-10 7-14 7-6 2h4l13-4 11-7 5-3 5-2-2 6-4 2v2l-14 8 10-2 6-4 2 1-5 4-6 3-5 1h-12l-13-3-5-3-7-3 3-1 7 1 13-4 16-7z" fill="#6E6866"/>
<path transform="translate(452,620)" d="m0 0h16l9 3 3 3-1 1-21 1-12 3-12 6-9 6 1-7 9-10 8-4z" fill="#FBFBFC"/>
<path transform="translate(909,517)" d="m0 0h7l5 3 2 4v10l-6 6h-8l-6-5-1-3v-7l3-5z" fill="#323F47"/>
<path transform="translate(116,516)" d="m0 0 4 1-2 10-3 23v22l3 21 3 9-1 5-4-2-3-12-3-23v-25l3-24z" fill="#FBFBFC"/>
<path transform="translate(971,441)" d="m0 0 17 1 3 1v5l-1-3-6 1-3 5-10 10-16 14v-3l5-6 8-7 6-7 1-3-2-1 5-3h-10l-11 4-7 4-4 10-3 7-5 17-6 10h-3l5-8 4-10 1-7 4-14 5-8 6-5 9-3z" fill="#FBFBFC"/>
<path transform="translate(934,517)" d="m0 0h7l6 5 1 2v9l-2 4-5 3h-7l-6-5-1-2v-8l3-5z" fill="#2E3C45"/>
<path transform="translate(896,557)" d="m0 0h10l8 2 5 3 13 4h5l-1-3 5-2 5 1-1 3-3 2 9-2 5-2 18-1-2 4-2 1-11 1-16 5h-8l-16-6-2-1v-2l-17-4-4-1z" fill="#706A68"/>
<path transform="translate(991,443)" d="m0 0 2 2-2 15-4 12-4 8-7 6-10 5-12 3h-10l-2-2 13-3 10-3 10-6 8-10 5-16v-7l-3-1-1 4-12 12-8 7-4 2 6-7 13-12 4-5v-2l4-1 3 1z" fill="#6D6765"/>
<path transform="translate(882,517)" d="m0 0h13l4 4-1 5v3l2 2-1 7-3 2h-15l2-3v-17z" fill="#FBFBFC"/>
<path transform="translate(693,926)" d="m0 0h3l-1 4h-2l5 17 5 15 3 1h4v3l-14 5h-3l2-4 1-4-10-29-5-1 1-3z" fill="#FBFBFC"/>
<path transform="translate(159,321)" d="m0 0 3 1 5 8 7 14 7 12-1 3-13-24 4 11 5 12 16 47 13 40 9 30 2 6v8l-3 4-4-1 4-2 1-7-7-22-9-30-25-75-12-28-2-4z" fill="#6D6765"/>
<path transform="translate(630,620)" d="m0 0h14l10 3 10 6 9 10 1 4-4-1v-2l-4-2-14-8-9-3-13-1-11 1 1-3z" fill="#FBFBFC"/>
<path transform="translate(425,937)" d="m0 0 9 1 3 2 1 9-3 6-4 2-7-1-4-2 2-11 2-5z" fill="#303E46"/>
<path transform="translate(729,916)" d="m0 0 6 1 3 3 2 7-2 5-3 3-5 2h-3l-6-13v-4z" fill="#2F3D46"/>
<path transform="translate(567,952)" d="m0 0h7l3 4 1 7-3 5-3 2h-10l-1-16z" fill="#2E3C45"/>
<path transform="translate(596,767)" d="m0 0 10 5 12 7 15 6 9 2 9 1h24l18-3 16-6 11-7 2 1-8 6-13 6-15 4-7 1h-31l-16-3-15-6-16-9-3-2 3 6v4h-7l-11-3-7-4 2-1 13 5 8 1-3-6z" fill="#6D6765"/>
<path transform="translate(600,710)" d="m0 0 6 1 18 6 9 2h22l16-4 7-2-1 2-15 5-11 2h-13l-12-2-14-4 12 7 15 10 3 3-5-2-18-11-14-7-6-2-13-1v-1l14-1z" fill="#6D6765"/>
<path transform="translate(921,402)" d="m0 0h3l3 6 1 3 5 2 5 5-1 2-2-2 1 5-4-2-3-3 2 7v5l-2-3-3-12-2 1-1-6v-4l-6 16-3 11v12l3 16 3 6-1 2-4-7-3-12v-20z" fill="#6D6765"/>
<path transform="translate(949,517)" d="m0 0h9l-2 3v6l5-5v-4h8l-6 7-2 4 5 7v2l4 2v1h-5l-7-9h-2v6l2 1v2h-9l2-3v-16z" fill="#FBFBFC"/>
<path transform="translate(521,684)" d="m0 0 1 2-8 11-10 10-7 5 4 2-10 3-8 5-2-1 4-4-13 4h-29l-14-4 4-1 14 3h20l11-2 19-8 10-8 7-7z" fill="#6D6765"/>
<path transform="translate(934,517)" d="m0 0h7l6 5 1 2v9l-2 4-5 3h-7l-6-5-1-2v-8l3-5zm1 2-4 4v10l3 4 5 1 4-2 1-3v-9l-3-4z" fill="#FBFBFC"/>
<path transform="translate(909,517)" d="m0 0h7l5 3 2 4v10l-6 6h-8l-6-5-1-3v-7l3-5zm1 2-4 4v10l3 4 6 1 4-3 1-9-3-5-3-2z" fill="#FBFBFC"/>
<path transform="translate(906,613)" d="m0 0 3 1-10 7-14 7-6 2 2 3-7-1-5-3-7-3 3-1 7 1 13-4 16-7z" fill="#8E8A88"/>
<path transform="translate(508,766)" d="m0 0h3l-1 6-2 5 12-2-1 2-7 2h-6l-1-3 3-6-14 8-13 5-14 5-10 2h-29l-8-2v-1l12 1h22l15-3 25-10 11-6z" fill="#6C6664"/>
<path transform="translate(968,444)" d="m0 0m-4 1h4l-2 5-5 4-8 13-2-1 6-10 2-3v-3l-8 7-7 14 2 1-4 7-3 10-3 2 3-10 5-16 4-8 2-5z" fill="#6D6765"/>
<path transform="translate(608,290)" d="m0 0 2 1v7l-6 21-5 12-2 2 1-5 6-17-8 14-9 11-7 7-2-1 10-10 9-13 7-15 3-13z" fill="#696463"/>
<path transform="translate(957,601)" d="m0 0 2 1 1 5v26l-3 9-4 1-1-4 3-7 1-28z" fill="#FBFBFC"/>
<path transform="translate(977,466)" d="m0 0h2l-1 4-12 7-8 3h-3v-3h-2l-2 4-5 1v-3l4-4h2l1-3 2 1 4-2 1 2-3 3 12-5z" fill="#6E6866"/>
<path transform="translate(924,616)" d="m0 0h3l-1 5-7 9-11 7-6 2h-22l-13-5-9-5 2-1 15 7 9 2h15l10-3 8-6h2l4-8-5 5-2-1z" fill="#6D6765"/>
<path transform="translate(141,328)" d="m0 0 3 1 6 13 6 17-1 4-7-19 3 12 3 11-1 4-12-39-1-3z" fill="#6D6765"/>
<path transform="translate(737,312)" d="m0 0 2 1 1 3v12l-3 12-3 7-1-3 4-13v-5l-5 13-7 8v-3l6-9 3-8 2-14z" fill="#6D6765"/>
<path transform="translate(961,588)" d="m0 0 1 4-3 10-2 2-1 28-3 7v3h3l3-9h1l-1 9-3 3-5-1 1-9 2-6 1-27v-3l-4 3-2-1 10-8z" fill="#6D6765"/>
<path transform="translate(536,136)" d="m0 0 4 1 2 3v6l-4 6-5 2-1-3 3-4 1-4-3-1 1-4z" fill="#FBFBFC"/>
<path transform="translate(924,407)" d="m0 0 4 2v2l5 2 5 5-1 2-2-2 1 5-4-2-3-3 2 7v5l-2-3-3-12-2 1-1-6z" fill="#6C6664"/>
<path transform="translate(920,469)" d="m0 0 4 3v2h-2v10l-4 13-6 9-4 3-6-2 1-5 3-1 2 2-2 4 5-3 5-8 3-9z" fill="#6D6765"/>
<path transform="translate(935,408)" d="m0 0 7 6 5 10 1 3v16l-3 3-4-14-3-12 3 3 4 12 1 2-1-12-4-8-6-7z" fill="#6D6765"/>
<path transform="translate(335,349)" d="m0 0h3l6 10v5l10 13 9 8-1 2-10-9-8-10-8-14z" fill="#6D6765"/>
<path transform="translate(626,620)" d="m0 0 4 1-10 4-1 2 11-2 13 1 13 5 8 5-2 1-14-7-6-2h-16l-8 1-1-4 6-4z" fill="#6D6765"/>
<path transform="translate(896,557)" d="m0 0h10l8 2 11 6 1 2-9-2-12-4-9-2z" fill="#FBFBFC"/>
<path transform="translate(159,321)" d="m0 0 3 1 5 8 7 14 7 12-1 3-13-24-4-2-4-9z" fill="#6D6765"/>
<path transform="translate(965,486)" d="m0 0m-3 1h3l1 4-12 3h-10l-2-2 13-3z" fill="#6D6765"/>
<path transform="translate(480,625)" d="m0 0h2l-1 3-20 1-16 4-13 7h-3l10-7 14-5 5-1 21-1z" fill="#6D6765"/>
<path transform="translate(701,443)" d="m0 0h9v1l-11 2h15l12-3 3 1-13 4-6 1h-11l-6-3 1-2z" fill="#6D6765"/>
<path transform="translate(968,444)" d="m0 0m-4 1h4l-2 5-5 4-8 13-2-1 6-10 2-3v-3l-2-1z" fill="#6D6765"/>
<path transform="translate(925,413)" d="m0 0 2 2 5 19 1 6v9l-2-2-4-20z" fill="#FBFBFC"/>
<path transform="translate(361,709)" d="m0 0h2v5l-2-1-1 4v15l4 13 3 5-1 2-5-8-3-9v-20l2-5z" fill="#6D6765"/>
<path transform="translate(982,474)" d="m0 0 2 1-5 7-5 5-6 3-3-1 2-4 10-5z" fill="#7C7775"/>
<path transform="translate(930,494)" d="m0 0 1 4-4 5-8 5h-4l1-3 9-6z" fill="#736E6C"/>
<path transform="translate(892,171)" d="m0 0 4 2 12 11 7 7 6 5-1 2-8-7-11-11-8-7z" fill="#6D6765"/>
<path transform="translate(888,530)" d="m0 0 7 1 1 5-4 2-5-1v-6z" fill="#3B454C"/>
<path transform="translate(969,444)" d="m0 0h9l3 2-7 2 1 4-10 11-2-1 9-10-2-4 3-2h-5z" fill="#6D6765"/>
<path transform="translate(377,771)" d="m0 0 4 2 13 9 14 8-2 1-17-9-9-7z" fill="#6D6765"/>
<path transform="translate(906,613)" d="m0 0 3 1-10 7-5 3-2-1 1-4z" fill="#77716F"/>
<path transform="translate(887,520)" d="m0 0h7l1 5-5 3-3-1z" fill="#3E474D"/>
<path transform="translate(925,446)" d="m0 0h2v15l-2 2-2-2-2-10h2l1 3z" fill="#6D6765"/>
<path transform="translate(733,425)" d="m0 0 3 1-2 5-5 5-2-1 3-4-5 3-8 1 3-2 10-5z" fill="#6D6765"/>
<path transform="translate(921,394)" d="m0 0 4 1v2h2l4 5-1 2-7-7-4 2-6 14-1-3 5-13z" fill="#6D6765"/>
<path transform="translate(931,430)" d="m0 0 2 3 1 5v16l-2 5h-1l-1-12h2z" fill="#6D6765"/>
<path transform="translate(920,601)" d="m0 0 10 3h10l9-2-3 3-4 1h-15l-6-2z" fill="#6D6765"/>
<path transform="translate(971,562)" d="m0 0h3l-2 4-2 1-14 1 1-2 7-2v-1z" fill="#6D6765"/>
<path transform="translate(915,614)" d="m0 0h2l-2 4-9 7-5 3-3-1 11-8z" fill="#FBFBFC"/>
<path transform="translate(600,710)" d="m0 0 6 1 3 3-4 1-19-2v-1l14-1z" fill="#5F5D5E"/>
<path transform="translate(958,517)" d="m0 0 4 1-1 4-5 5-1-1v-6z" fill="#464C51"/>
<path transform="translate(734,768)" d="m0 0 3 1-2 10-5 9-1-2 5-12v-3l-4 2z" fill="#6D6765"/>
<path transform="translate(926,567)" d="m0 0 14 1 2 1-1 3-7-1-8-3z" fill="#FBFBFC"/>
<path transform="translate(920,469)" d="m0 0 4 3v2h-2v10l-2 6-1-3z" fill="#6D6765"/>
<path transform="translate(959,451)" d="m0 0 1 2-5 7-3 6h2l-1 3h-4l2-6 7-11z" fill="#6D6765"/>
<path transform="translate(923,438)" d="m0 0h1l1 6v11l-2-1-1-3v-11z" fill="#FBFBFC"/>
<path transform="translate(411,338)" d="m0 0 5 1 3 4h-3l4 6-1 2-8-10z" fill="#6D6765"/>
<path transform="translate(848,117)" d="m0 0 5 2 10 7 6 5h-3l-18-13z" fill="#6D6765"/>
<path transform="translate(879,611)" d="m0 0h5l-3 3-9 3-4-1 5-3z" fill="#FBFBFC"/>
<path transform="translate(159,321)" d="m0 0 3 1 2 5 2 7-3-1-4-9z" fill="#9D9998"/>
<path transform="translate(509,770)" d="m0 0 1 2-2 5 12-2-1 2-7 2h-6l-1-3z" fill="#6D6765"/>
<path transform="translate(960,563)" d="m0 0 7 1v1l-13 3-7 1 2-2z" fill="#FBFBFC"/>
<path transform="translate(962,449)" d="m0 0 2 1-9 14-2 3-2-1 9-15h2z" fill="#FBFBFC"/>
<path transform="translate(915,617)" d="m0 0v3l-4 2v2l-7 4-2-1 9-7z" fill="#6D6765"/>
<path transform="translate(920,610)" d="m0 0h4v3l-5 3h-2v-2l-2-1z" fill="#6D6765"/>
<path transform="translate(369,764)" d="m0 0 7 4 1 3-4-2-1 1v5l-2-2z" fill="#6D6765"/>
<path transform="translate(905,501)" d="m0 0 3 2-2 4h2v2l-6-2 1-5z" fill="#76716F"/>
<path transform="translate(982,474)" d="m0 0 2 1-5 7-6 4-2-1 9-8z" fill="#FBFBFC"/>
</svg>
